# xmcd CD database file
#
# Track frame offsets:
#	183
#	14883
#	33708
#	46483
#	63083
#	76008
#	88933
#	105658
#	117133
#	133183
#	152308
#	164433
#	175183
#	184208
#	194608
#	204658
#
# Disc length: 2849 seconds
#
# Revision: 1
# Processed by: cddbd v1.4PL0 Copyright (c) Steve Scherf et al.
# Submitted via: CDex 1.40Release
#
DISCID=dc0b1f10
DTITLE=Freddy Quinn - Junge, komm bald wieder
DYEAR=1990
DGENRE=Satire
TTITLE0=Junge, komm bald wieder
TTITLE1=La Paloma
TTITLE2=Heimatlos
TTITLE3=Aloa Oe
TTITLE4=Wo die hohen Masten in den Schiffen steh'n (Mein Hamburg)
TTITLE5=Unter fremden Sternen (fährt ein weisses Schiff nach Honkong)
TTITLE6=Rolling Home
TTITLE7=Wo die Nordsee Wellen ...
TTITLE8=Heimweh
TTITLE9=Hamburg City (In Hamburg schlägt der Puls der Welt)
TTITLE10=Lustig ist das Zigeunerleben
TTITLE11=Weißt du wieviel Sternlein stehen?
TTITLE12=Freut euch des Lebens
TTITLE13=Kein schöner Land in dieser Zeit
TTITLE14=Du, du, liegst mir im Herzen
TTITLE15=Beim Kronenwirt
EXTD=JSU YEAR: 1990 ID3G: 110
EXTT0=
EXTT1=
EXTT2=
EXTT3=
EXTT4=
EXTT5=
EXTT6=
EXTT7=
EXTT8=
EXTT9=
EXTT10=
EXTT11=
EXTT12=
EXTT13=
EXTT14=
EXTT15=
PLAYORDER=
